PathFileType	4	(X/Y/Z)	SUBJ89_0_static_RCNL2025.trc
DataRate	CameraRate	NumFrames	NumMarkers	Units	OrigDataRate	OrigDataStartFrame	OrigNumFrames
100	100	10	25	mm	100	134	267
Frame#	Time	R_Shoulder			L_Shoulder			C7			J_Notch			R_Elbow			L_Elbow			R_Wrist			L_Wrist			R_Asis			L_Asis			Sacral			Thoracic			Sternum			R_Thigh_Lateral			R_Knee_Lateral			R_Shank_Lateral			R_Ankle_Lateral			R_Heel			R_Toe			L_Thigh_Lateral			L_Knee_Lateral			L_Shank_Lateral			L_Ankle_Lateral			L_Heel			L_Toe		
		X1	Y1	Z1	X2	Y2	Z2	X3	Y3	Z3	X4	Y4	Z4	X5	Y5	Z5	X6	Y6	Z6	X7	Y7	Z7	X8	Y8	Z8	X9	Y9	Z9	X10	Y10	Z10	X11	Y11	Z11	X12	Y12	Z12	X13	Y13	Z13	X14	Y14	Z14	X15	Y15	Z15	X16	Y16	Z16	X17	Y17	Z17	X18	Y18	Z18	X19	Y19	Z19	X20	Y20	Z20	X21	Y21	Z21	X22	Y22	Z22	X23	Y23	Z23	X24	Y24	Z24	X25	Y25	Z25
134	1.33000000	-226.020264	1452.587402	-41.814175	-251.052048	1451.956421	-430.270172	-293.660614	1515.162842	-243.430527	-160.990952	1402.612305	-236.513229	-247.049454	1186.303223	130.344406	-220.019699	1188.125732	-606.970703	-159.676277	957.068604	243.737930	-113.959015	978.967896	-734.155823	-147.483932	1002.262695	-107.969170	-139.730011	1007.216919	-349.376709	-315.067017	1050.265137	-220.468643	-360.706726	1333.948242	-228.585907	-121.183144	1255.809326	-245.648911	-209.674759	619.299744	-36.224976	-228.002151	501.151550	-88.835831	-281.375824	283.775787	-31.568933	-316.964813	74.800423	-95.820595	-352.197083	64.261246	-141.695160	-157.092850	35.840858	-101.036263	-191.498169	577.949524	-445.334656	-205.377350	492.609558	-372.724365	-264.668945	267.023438	-427.842560	-287.927307	67.592232	-365.963226	-325.005554	72.709633	-317.191162	-131.322189	35.695839	-360.089935
135	1.34000000	-225.907013	1452.552002	-41.912937	-251.045166	1451.916992	-430.274323	-293.587494	1515.128418	-243.454773	-160.931229	1402.535278	-236.604538	-246.921814	1186.412109	130.365555	-220.002289	1188.139038	-606.989136	-159.624107	957.167877	243.870087	-114.112556	978.909607	-734.145050	-147.478561	1002.261047	-107.989128	-139.648315	1007.234802	-349.271362	-315.076599	1050.211426	-220.450546	-360.705322	1333.959839	-228.587860	-121.358803	1255.782593	-245.553329	-209.775070	619.290527	-36.122478	-228.009048	501.154419	-88.823242	-281.379761	283.774261	-31.565107	-316.979980	74.803253	-95.794991	-352.122833	64.293526	-141.716385	-157.058945	35.858307	-101.065422	-191.473236	577.937439	-445.281006	-205.374603	492.648254	-372.747345	-264.661560	266.989105	-427.758881	-287.982391	67.534653	-365.907776	-325.034943	72.649597	-317.167328	-131.307602	35.654751	-360.072205
136	1.35000000	-225.850418	1452.562256	-41.918991	-251.029114	1451.860352	-430.300446	-293.563934	1515.214844	-243.493851	-160.919556	1402.532227	-236.640625	-246.784485	1186.482300	130.391632	-219.942123	1188.130005	-607.039368	-159.522934	957.244446	243.930069	-114.115051	978.893066	-734.185425	-147.422195	1002.284607	-108.032425	-139.711182	1007.211121	-349.354767	-315.067200	1050.283447	-220.466003	-360.631866	1333.972778	-228.650742	-121.443176	1255.682251	-245.536087	-209.668671	619.304688	-36.245319	-228.033493	501.188416	-88.824112	-281.670074	283.700836	-31.474882	-316.973480	74.801201	-95.818329	-352.222961	64.338211	-141.672714	-157.087189	35.842323	-101.055428	-191.597656	577.982605	-445.343597	-205.446304	492.657928	-372.805817	-264.770355	267.066498	-427.831665	-287.955841	67.589790	-365.930908	-325.027344	72.653839	-317.175598	-131.377914	35.680237	-360.037628
137	1.36000000	-225.693542	1452.625854	-41.955025	-251.018402	1451.908813	-430.406708	-293.432007	1515.202026	-243.511520	-160.879654	1402.484619	-236.768784	-246.606903	1186.645020	130.401794	-219.959274	1188.123779	-607.121643	-159.379951	957.354736	243.995773	-113.980885	978.931580	-734.283844	-147.409393	1002.295044	-108.048317	-139.657776	1007.236267	-349.417847	-314.930389	1050.294800	-220.429077	-360.556122	1334.036011	-228.612808	-121.347977	1255.675049	-245.667099	-209.626572	619.304016	-36.249771	-228.000366	501.181610	-88.829865	-281.637299	283.912964	-31.474453	-316.946045	74.806358	-95.821716	-352.181122	64.335762	-141.695801	-157.064178	35.905270	-101.071373	-191.580093	577.958618	-445.412933	-205.468491	492.634369	-372.805054	-264.780853	267.069183	-427.842712	-287.863525	67.569244	-365.934052	-324.982880	72.688988	-317.226654	-131.304398	35.625477	-360.088959
138	1.37000000	-225.584213	1452.667236	-41.994724	-250.938995	1451.883301	-430.405060	-293.439941	1515.204346	-243.490372	-160.869522	1402.471924	-236.770706	-246.493561	1186.739868	130.449265	-219.920456	1188.082520	-607.093445	-159.269173	957.419006	244.088104	-114.073177	978.828125	-734.264801	-147.412186	1002.295227	-108.046867	-139.649506	1007.239014	-349.419098	-314.919373	1050.276245	-220.399750	-360.548126	1334.091431	-228.600204	-121.298729	1255.682739	-245.728439	-209.684875	619.312073	-36.266998	-228.023743	501.198669	-88.787117	-281.505066	283.823700	-31.635448	-316.961792	74.836983	-95.793671	-352.121857	64.304558	-141.717529	-157.048050	35.902847	-101.085648	-191.698715	577.954224	-445.461090	-205.553848	492.615479	-372.747314	-264.849884	267.064941	-427.788086	-287.960754	67.553757	-365.891357	-324.985687	72.704796	-317.222931	-131.288254	35.614449	-360.089966
139	1.38000000	-225.506714	1452.669922	-42.043159	-250.964340	1451.829224	-430.425842	-293.455444	1515.224243	-243.435760	-160.794662	1402.469238	-236.854553	-246.353897	1186.794434	130.495789	-219.890152	1188.018066	-607.113770	-159.195312	957.521362	244.131485	-114.140976	978.757751	-734.233276	-147.478210	1002.271790	-107.991249	-139.650925	1007.271423	-349.387329	-314.920624	1050.261841	-220.419113	-360.497589	1334.109985	-228.621597	-121.232323	1255.669556	-245.867279	-209.748520	619.299927	-36.295212	-228.060425	501.211121	-88.820396	-281.548553	283.808594	-31.699030	-316.959045	74.829750	-95.796387	-352.182129	64.356621	-141.670410	-156.997009	35.870701	-101.104477	-191.771042	578.005066	-445.432526	-205.640686	492.678192	-372.845947	-264.798492	267.113800	-427.719269	-287.988190	67.535492	-365.916687	-325.002869	72.709442	-317.192505	-131.339935	35.590187	-360.071655
140	1.39000000	-225.429993	1452.693237	-42.112778	-250.968353	1451.778564	-430.457855	-293.375336	1515.197388	-243.530106	-160.800934	1402.397827	-236.890732	-246.384430	1186.859131	130.507568	-219.899796	1187.977295	-607.099182	-159.092743	957.601471	244.218529	-114.045506	978.744415	-734.204498	-147.479675	1002.243103	-107.989883	-139.648224	1007.230957	-349.411133	-314.984619	1050.294189	-220.463074	-360.490601	1334.122681	-228.626083	-121.281342	1255.630981	-245.801773	-209.934616	619.326965	-36.170708	-228.117325	501.228271	-88.779793	-281.692505	283.774048	-31.751017	-316.964661	74.814308	-95.802551	-352.113739	64.293114	-141.709030	-157.000854	35.771931	-101.080032	-191.801376	578.008789	-445.407776	-205.647644	492.681793	-372.843658	-264.956024	267.092041	-427.690582	-287.994476	67.540154	-365.853943	-324.984100	72.701553	-317.188538	-131.270905	35.557491	-360.062866
141	1.40000000	-225.362915	1452.706177	-42.180576	-250.939896	1451.782104	-430.491425	-293.351654	1515.272339	-243.557388	-160.829102	1402.341797	-236.864182	-246.357254	1186.952393	130.495041	-219.890930	1187.934570	-607.115662	-159.046021	957.707153	244.197044	-114.080765	978.601379	-734.217743	-147.411346	1002.281311	-108.046577	-139.644073	1007.278381	-349.402649	-315.009918	1050.389526	-220.498917	-360.490723	1334.156860	-228.624557	-121.401443	1255.497559	-245.875763	-209.930618	619.355713	-36.312641	-228.203278	501.227966	-88.827240	-281.707428	283.845978	-31.763535	-316.966003	74.839546	-95.827171	-352.145416	64.332275	-141.711334	-156.967148	35.851200	-101.061279	-191.865967	578.072205	-445.451477	-205.632736	492.654572	-372.851044	-265.003754	266.963959	-427.599945	-287.956024	67.545990	-365.884979	-324.983948	72.729362	-317.205811	-131.238525	35.552212	-360.078705
142	1.41000000	-225.321274	1452.790771	-42.225178	-250.915634	1451.730835	-430.534241	-293.316315	1515.283325	-243.571152	-160.785995	1402.312134	-236.897171	-246.198135	1187.003296	130.480179	-219.861633	1187.912720	-607.165161	-158.937874	957.766968	244.251434	-114.160046	978.499054	-734.125275	-147.412964	1002.313171	-108.033440	-139.738037	1007.209290	-349.390350	-315.013092	1050.421387	-220.480484	-360.409790	1334.222412	-228.704514	-121.312569	1255.296631	-245.810059	-209.929031	619.371826	-36.332386	-228.209473	501.230652	-88.816109	-281.988068	283.791290	-31.760849	-316.937958	74.824379	-95.817787	-352.075317	64.375732	-141.770294	-156.877335	35.871731	-101.062927	-191.870819	578.093384	-445.499664	-205.632431	492.690399	-372.848846	-264.874878	267.140381	-427.670380	-287.953064	67.585327	-365.896423	-324.980988	72.729179	-317.210907	-131.238174	35.495724	-360.105652
143	1.42000000	-225.304047	1452.858032	-42.222721	-250.971817	1451.669312	-430.553619	-293.247986	1515.266968	-243.609558	-160.886047	1402.324219	-236.965698	-246.180664	1187.109375	130.495895	-219.881989	1187.850464	-607.169556	-158.817917	957.875122	244.245674	-114.119976	978.434265	-734.032227	-147.429291	1002.327087	-108.028908	-139.743713	1007.216370	-349.370789	-315.012482	1050.420654	-220.478333	-360.342743	1334.199951	-228.651016	-121.307167	1255.203491	-245.819321	-209.512451	619.188232	-36.678219	-228.222763	501.270752	-88.824982	-281.917053	283.834167	-31.829899	-316.964325	74.836876	-95.828239	-352.066681	64.374390	-141.775940	-156.939209	35.859997	-101.101532	-191.863022	578.072021	-445.535095	-205.646454	492.672913	-372.858856	-265.030334	266.990265	-427.604187	-287.961884	67.604744	-365.913574	-324.974548	72.717445	-317.192871	-131.249008	35.515259	-360.105865
